<svg xmlns="http://www.w3.org/2000/svg" viewBox="0 0 168.12 227.16"><defs><style>.cls-1{fill:#fff;}</style></defs><title>Asset 1</title><g id="Layer_2" data-name="Layer 2"><g id="Layer_1-2" data-name="Layer 1"><path class="cls-1" d="M71.13,164.71c.94-1.94,1.78-3.94,2.85-5.81,4.3-7.59,10.08-14,16.23-20.12A15.45,15.45,0,0,1,92,137a7.29,7.29,0,0,0,3-5.36c.86-5.6,1.9-11.17,2.88-16.75,1.82-10.33,3.23-20.71,4.11-31.16.66-7.81,1.16-15.64,1.44-23.48a107.23,107.23,0,0,0-.7-11,3.2,3.2,0,0,0-.16-.68c-.61-1.92-1.78-2.26-3.42-1.07-2.78,2-4.48,4.9-6.32,7.67-4.13,6.23-8,12.6-12.39,18.69A67.77,67.77,0,0,1,64.92,89.59a43.93,43.93,0,0,1-13.48,6.94c-2.94.85-5.95,1.44-8.93,2.12a6.64,6.64,0,0,1-1.3,0c2.69-1,5.13-1.8,7.44-2.85,7.35-3.3,13.4-8.35,18.72-14.32A113,113,0,0,0,78.54,66.35c2.4-3.8,4.58-7.74,7-11.54,2.53-4,5.08-8,7.85-11.79a14.25,14.25,0,0,1,6.77-5.49c4.25-1.46,5.71.19,6.74,3.28a42.61,42.61,0,0,1,1.89,8.73,181.45,181.45,0,0,1,.09,34.33q-.89,11.38-2.38,22.7c-.86,6.58-2.13,13.1-3.21,19.64a5.52,5.52,0,0,0,0,.61l4.16-3.41c2.32-1.88,4.63-3.77,7-5.65l8.71-7c3-2.42,6.14-4.75,9.09-7.26,4.09-3.5,8.08-7.11,12.07-10.72A16.39,16.39,0,0,0,148.55,87c.82-2,.09-3.52-2.06-3.47a48.2,48.2,0,0,0-8.63,1c-5,1.07-9.92,2.49-14.91,3.63a21,21,0,0,1-8.31.65c-2.2-.38-3.11-1.84-2.39-4a204.15,204.15,0,0,0,6.35-22.72c1-4.68,1.66-9.42.75-14.22-.62-3.24-2.44-5.73-4.68-8.07.65.54,1.34,1,2,1.6,3.36,3.15,4.56,7.2,4.8,11.64.35,6.59-.86,13-2.21,19.39-.24,1.13-.54,2.26-.82,3.39a2.76,2.76,0,0,0,2.52,3.64,19.49,19.49,0,0,0,7.81-.89c5.06-1.31,10.1-2.74,15.14-4.11s9.95-2.83,15.14-3a20.9,20.9,0,0,1,5.53.46,4.35,4.35,0,0,1,3.3,5.91,13.35,13.35,0,0,1-2.63,4.72,83.16,83.16,0,0,1-8.64,8.26c-5.57,4.44-11.34,8.65-17.1,12.84-4.36,3.16-8.87,6.1-13.27,9.21-5.08,3.61-10.13,7.28-15.16,11-2.63,1.93-5.21,3.91-7.77,5.92a2.68,2.68,0,0,0-.89,1.41c-1.28,5.39-2.39,10.83-3.8,16.19-1.48,5.65-3.16,11.26-4.92,16.84-1.56,4.91-3.17,9.82-5.05,14.61-2.07,5.26-4.4,10.42-6.77,15.55a101.75,101.75,0,0,1-5.24,10.11q-4.28,7.05-9,13.8c-2.21,3.12-4.78,6-7.19,9L60,226.9c.56-.79,1.15-1.55,1.67-2.37,2.47-3.89,5.14-7.67,7.31-11.72,2.65-4.94,5-10.08,7.25-15.2,1.24-2.75,2.26-5.61,3.22-8.47,2.31-6.91,4.62-13.82,6.75-20.78,1.32-4.29,2.35-8.68,3.45-13,1-4.06,2-8.13,2.94-12.21a50.27,50.27,0,0,0,.93-5.31c-8.86,7.81-17.24,16-22.11,27.06Z"/><path class="cls-1" d="M.28,22.51c.7,2,1.37,4,2.12,6a46.53,46.53,0,0,0,8.71,15,30.16,30.16,0,0,0,14.7,9.36,33,33,0,0,0,18.58-.48c2.64-.79,5.18-1.87,7.76-2.83A8.61,8.61,0,0,0,53.22,49,38.68,38.68,0,0,1,43,36.91l3.34,4.28a33.41,33.41,0,0,0,7.29,6.6c.95.68,1.7.24,2.45-.21A72.82,72.82,0,0,0,71.62,35.66a61.39,61.39,0,0,0,4.82-5.95c1.67-2.27,3.2-4.65,4.68-7.11-1.32.9-2.63,1.81-4,2.7a33.83,33.83,0,0,1-17.81,6.11,18.89,18.89,0,0,1-11.8-3.28,18,18,0,0,1-7.14-10.57C38.88,11.63,39.59,5.8,41.18,0c-.18,1.38-.39,2.77-.54,4.16a30.88,30.88,0,0,0,.8,12.69C44.08,25.43,50.85,30,60,29.13a28.15,28.15,0,0,0,14.9-6.26c3.27-2.54,6.42-5.25,9.74-7.74,4-3,8.39-4.84,13.53-4.25a28,28,0,0,1,3,.62l-.06.38a20,20,0,0,0-2,0c-2.46.28-4,1.93-5.06,3.89-1.3,2.34-2.36,4.8-3.5,7.22-2.63,5.57-5.21,11.16-7.91,16.7a47.51,47.51,0,0,1-2.91,4.61A5.62,5.62,0,0,0,79,45.47a30.22,30.22,0,0,0,8.66-12.58c1.4-3.78,2.63-7.62,4.1-11.37A43.11,43.11,0,0,1,95,15.1a5,5,0,0,1,6.13-2.46c-2.58.35-3.45,1-3.91,3.66-.64,3.74-1.11,7.52-1.61,11.29C94.71,34,92.79,40,88.74,45.16a24.92,24.92,0,0,1-9,7.22,24.56,24.56,0,0,1-8.5,2.25,6,6,0,0,0-2.21,1.06c-2.86,1.69-5.59,3.64-8.58,5.08a36.53,36.53,0,0,1-23.73,2.79,40.18,40.18,0,0,1-18.52-9.29,51,51,0,0,1-8.4-9.44,61.92,61.92,0,0,1-8.4-17.54L0,22.56Z"/><path class="cls-1" d="M104.31,13.56a13.77,13.77,0,0,1,6.52,3.75,16,16,0,0,1,2.58,3.27c.92,1.52.49,2.56-1.11,3.4-1.24.64-2.45,1.33-3.72,1.9a2,2,0,0,0-1.12,2.59,12.55,12.55,0,0,1,.32,2.89,40.15,40.15,0,0,1-2-4.43,2.34,2.34,0,0,1,.8-1.92,24.12,24.12,0,0,1,3.39-2.22,1.78,1.78,0,0,0,.87-2.17,9.79,9.79,0,0,0-4.43-5.87C105.72,14.3,105,14,104.31,13.56Z"/></g></g></svg>